# xmcd CD database file
#
# Track frame offsets:
#	150
#	13130
#	21589
#	29102
#	41519
#	58797
#	72611
#
# Disc length: 1173 seconds
#
# Revision: 1
# Processed by: cddbd v1.5.2PL0 Copyright (c) Steve Scherf et al.
# Submitted via: CDex 2.07
#
DISCID=69049307
DTITLE=The Devil's Jukebox - The Devil's Jukebox
DYEAR=2006
DGENRE=Blues
TTITLE0=Everybody Loves My Baby
TTITLE1=Natural Fact
TTITLE2=Hey Pretty Momma
TTITLE3=Glad When You're Dead
TTITLE4=Hustler's Blues
TTITLE5=Song of the Sea
TTITLE6=Gilded Cage Tango
EXTD=YEAR: 2006
EXTT0=
EXTT1=
EXTT2=
EXTT3=
EXTT4=
EXTT5=
EXTT6=
PLAYORDER=
